<?xml version="1.0" encoding="UTF-8" standalone="no"?>
<svg width="128px" height="128px" viewBox="0 0 128 128" version="1.1" xmlns="http://www.w3.org/2000/svg" xmlns:xlink="http://www.w3.org/1999/xlink" xmlns:sketch="http://www.bohemiancoding.com/sketch/ns">
    <!-- Generator: Sketch 3.4.4 (17249) - http://www.bohemiancoding.com/sketch -->
    <title>icon128</title>
    <desc>Created with Sketch.</desc>
    <defs></defs>
    <g id="Page-1" stroke="none" stroke-width="1" fill="none" fill-rule="evenodd" sketch:type="MSPage">
        <g id="icon128" sketch:type="MSArtboardGroup">
            <rect id="Rectangle-3" fill="#6385AD" sketch:type="MSShapeGroup" x="0" y="0" width="128" height="128" rx="5"></rect>
            <polygon id="Polygon-1" stroke="#4C6C91" stroke-width="5" opacity="0.603591418" fill-opacity="0.429461051" fill="#FFFFFF" sketch:type="MSShapeGroup" points="63.9789986 19.7161324 101.957997 41.6791574 101.957997 85.6052075 63.9789986 107.568233 26 85.6052075 26 41.6791574 "></polygon>
            <polygon id="Polygon-1" stroke="#4C6C91" stroke-width="5" opacity="0.603591418" fill-opacity="0" fill="#FFFFFF" sketch:type="MSShapeGroup" points="63.9789986 19.7161324 101.957997 41.6791574 101.957997 85.6052075 63.9789986 107.568233 26 85.6052075 26 41.6791574 "></polygon>
            <path d="M64.5036149,76.2115523 C64.5036149,76.2115523 65.2557731,76.1285121 65.6403628,75.714046 C65.9938449,75.3330899 65.9825464,74.6182094 65.9825464,74.6182094 C65.9825464,74.6182094 65.9338307,71.2707344 67.4846619,70.7777843 C69.0140698,70.291889 70.9775169,74.0129714 73.0584978,75.4439082 C74.6322194,76.5263701 75.8281011,76.2894484 75.8281011,76.2894484 L81.3929863,76.2115523 C81.3929863,76.2115523 84.3038944,76.0316564 82.9235681,73.7391592 C82.810583,73.5519146 82.1194661,72.0433756 78.7858174,68.9439924 C75.2961905,65.6999869 75.7639784,66.2248303 79.9671725,60.613518 C82.5269463,57.1962305 83.5501221,55.1100845 83.2303888,54.2166308 C82.9257691,53.3653586 81.0428791,53.5902285 81.0428791,53.5902285 L74.7773393,53.6290296 C74.7773393,53.6290296 74.3124861,53.5656839 73.9682483,53.7720351 C73.6314939,53.9738301 73.4153547,54.445322 73.4153547,54.445322 C73.4153547,54.445322 72.4232865,57.0895275 71.1012136,59.3386674 C68.3112142,64.0838631 67.1954492,64.3350413 66.7394001,64.039918 C65.6783669,63.3531094 65.9435151,61.2813669 65.9435151,59.8091305 C65.9435151,55.2103206 66.6399145,53.2929006 64.5874,52.7965701 C63.9064077,52.6319594 63.4047243,52.5230519 61.6628456,52.505268 C59.4270603,52.4824871 57.5352195,52.5121758 56.4637681,53.037901 C55.7509346,53.3875517 55.2009758,54.1665128 55.5361161,54.2113398 C55.950346,54.2666019 56.887976,54.4648696 57.3851106,55.1424187 C58.0273651,56.0176476 58.0049148,57.9823932 58.0049148,57.9823932 C58.0049148,57.9823932 58.3739507,63.3958788 57.1432931,64.0681369 C56.2988392,64.5293407 55.1402279,63.5878266 52.6527939,59.2826704 C51.3785563,57.0774756 50.4161283,54.6396214 50.4161283,54.6396214 C50.4161283,54.6396214 50.2308033,54.1841496 49.8997715,53.9403201 C49.4983074,53.6449028 48.9373435,53.5512805 48.9373435,53.5512805 L42.9831732,53.5902285 C42.9831732,53.5902285 42.0895634,53.6152141 41.7611728,54.0045477 C41.4690255,54.3511118 41.7378421,55.0670212 41.7378421,55.0670212 C41.7378421,55.0670212 46.3989929,65.9904071 51.6773066,71.4951634 C56.5176195,76.5428312 62.0129528,76.2115523 62.0129528,76.2115523 L64.5036149,76.2115523 Z" id="Fill-4" fill="#4C6C91" sketch:type="MSShapeGroup"></path>
        </g>
    </g>
</svg>